<svg width="56" height="56" viewBox="0 0 56 56" fill="none" xmlns="http://www.w3.org/2000/svg">
<rect width="56" height="56" rx="8" fill="#476BF0"/>
<path fill-rule="evenodd" clip-rule="evenodd" d="M19.6984 20.092C19.6 20.284 19.6 20.536 19.6 21.04V25.6336C19.6 26.1376 19.6 26.3896 19.6984 26.5816C19.7847 26.7511 19.9225 26.8889 20.092 26.9752C20.284 27.0736 20.536 27.0736 21.04 27.0736H25.6336C26.1376 27.0736 26.3896 27.0736 26.5816 26.9752C26.7511 26.8889 26.8889 26.7511 26.9752 26.5816C27.0736 26.3896 27.0736 26.1376 27.0736 25.6336V21.04C27.0736 20.536 27.0736 20.284 26.9752 20.092C26.8889 19.9225 26.7511 19.7847 26.5816 19.6984C26.3896 19.6 26.1376 19.6 25.6336 19.6H21.04C20.536 19.6 20.284 19.6 20.092 19.6984C19.9225 19.7847 19.7847 19.9225 19.6984 20.092ZM21.4 21.4H25.2736V25.2736H21.4V21.4Z" fill="white"/>
<path fill-rule="evenodd" clip-rule="evenodd" d="M19.6984 29.4184C19.6 29.6104 19.6 29.8624 19.6 30.3664V34.96C19.6 35.464 19.6 35.716 19.6984 35.908C19.7847 36.0775 19.9225 36.2153 20.092 36.3016C20.284 36.4 20.536 36.4 21.04 36.4H25.6336C26.1376 36.4 26.3896 36.4 26.5816 36.3016C26.7511 36.2153 26.8889 36.0775 26.9752 35.908C27.0736 35.716 27.0736 35.464 27.0736 34.96V30.3664C27.0736 29.8624 27.0736 29.6104 26.9752 29.4184C26.8889 29.2489 26.7511 29.1111 26.5816 29.0248C26.3896 28.9264 26.1376 28.9264 25.6336 28.9264H21.04C20.536 28.9264 20.284 28.9264 20.092 29.0248C19.9225 29.1111 19.7847 29.2489 19.6984 29.4184ZM21.4 30.7264H25.2736V34.6H21.4V30.7264Z" fill="white"/>
<path fill-rule="evenodd" clip-rule="evenodd" d="M28.9264 21.04C28.9264 20.536 28.9264 20.284 29.0248 20.092C29.1111 19.9225 29.2489 19.7847 29.4184 19.6984C29.6104 19.6 29.8624 19.6 30.3664 19.6H34.96C35.464 19.6 35.716 19.6 35.908 19.6984C36.0775 19.7847 36.2153 19.9225 36.3016 20.092C36.4 20.284 36.4 20.536 36.4 21.04V25.6336C36.4 26.1376 36.4 26.3896 36.3016 26.5816C36.2153 26.7511 36.0775 26.8889 35.908 26.9752C35.716 27.0736 35.464 27.0736 34.96 27.0736H30.3664C29.8624 27.0736 29.6104 27.0736 29.4184 26.9752C29.2489 26.8889 29.1111 26.7511 29.0248 26.5816C28.9264 26.3896 28.9264 26.1376 28.9264 25.6336V21.04ZM30.7264 25.2736V21.4H34.6V25.2736H30.7264Z" fill="white"/>
<path d="M28.924 28.924H31.4164V31.4164H28.924V28.924Z" fill="white"/>
<path d="M33.9076 31.4164H31.4164V33.9076H28.924V36.4H31.4164V33.9076H33.9076V36.4H36.4V33.9076H33.9076V31.4164Z" fill="white"/>
<path d="M33.9076 31.4164V28.924H36.4V31.4164H33.9076Z" fill="white"/>
</svg>
